<?xml version="1.0" encoding="UTF-8" standalone="no"?>
<!-- Created with Inkscape (http://www.inkscape.org/) -->

<svg
   width="192"
   height="192"
   viewBox="0 0 50.800001 50.800001"
   version="1.1"
   id="svg1"
   xml:space="preserve"
   xmlns="http://www.w3.org/2000/svg"
   xmlns:svg="http://www.w3.org/2000/svg"><defs
     id="defs1"><style
       id="style1">.a{fill:none;stroke:#b1b5bd;stroke-linecap:round;stroke-linejoin:round;isolation:isolate;opacity:0.63;}</style></defs><g
     id="layer1"><path
       id="path1"
       style="display:inline;fill:#ff837d;stroke:none;stroke-width:0.999999;stroke-linecap:round;stroke-linejoin:round"
       d="m 149.8252,183.09097 c 6.16808,0 5.14973,0.57056 6.92773,-3.1875 1.28622,-2.71863 1.44336,-3.33789 1.44336,-3.33789 0,-1.48829 -1.1582,-0.90948 -1.1582,-1.48828 0,-0.35138 -3.3e-4,-0.41211 0.5371,-0.41211 0.53744,0 0.95118,-0.33105 0.95118,-0.95117 0,-0.62013 -0.28872,-0.82618 -0.82618,-0.82618 -0.53742,0 -0.59961,-0.0423 -0.59961,-0.62109 0,-0.57866 0.0825,-0.59961 0.64063,-0.59961 0.5581,0 0.78516,-0.22673 0.78516,-1.07422 0,-0.84748 -0.35158,-1.11718 -0.84766,-1.11718 -0.49608,0 -0.55664,-0.10352 -0.55664,-0.59961 0,-0.49608 0.0602,-0.59766 0.59766,-0.59766 0.53744,0 0.76562,-0.20753 0.76562,-1.01367 0,-0.80617 -0.4554,-0.92969 -0.91016,-0.92969 -0.45474,0 -0.51562,-0.0628 -0.51562,-0.51758 0,-0.45463 0.0441,-0.44141 0.57031,-0.44141 0.52619,0 0.90625,-0.32209 0.90625,-1.14062 0,-0.8185 -0.29231,-1.05273 -0.87695,-1.05273 -0.58465,0 -0.54102,0.0591 -0.54102,-0.54102 0,-0.6003 0.0433,-0.57812 0.57618,-0.57812 0.53288,0 0.63671,-0.10961 0.63671,-1.10352 0,-0.99391 -0.32099,-1.10961 -1.51953,-2.10352 -1.19854,-0.99404 -1.4628,-1.02343 -2.31054,-1.02343 h -0.81836 V 15.880031 c 0,-7.6004873 -1.40294,-8.8281255 -7.89258,-8.8281255 H 46.209962 c -6.489642,0 -7.892581,1.2276382 -7.892581,8.8281255 V 157.83316 h -0.818358 c -0.847748,0 -1.112009,0.0295 -2.310546,1.02343 -1.198541,0.99391 -1.519533,1.10961 -1.519533,2.10352 0,0.99391 0.103824,1.10352 0.636718,1.10352 0.532868,0 0.578128,-0.0223 0.578128,0.57812 0,0.60018 0.04169,0.54102 -0.542971,0.54102 -0.584651,0 -0.876952,0.23421 -0.876952,1.05273 0,0.81852 0.380062,1.14062 0.906251,1.14062 0.526186,0 0.570312,-0.0132 0.570312,0.44141 0,0.45475 -0.06089,0.51758 -0.515626,0.51758 -0.454752,0 -0.910155,0.12352 -0.910155,0.92969 0,0.80615 0.228208,1.01367 0.765626,1.01367 0.537434,0 0.599607,0.10159 0.599607,0.59766 0,0.49609 -0.06251,0.59961 -0.558591,0.59961 -0.496097,0 -0.847658,0.2697 -0.847658,1.11718 0,0.8475 0.227036,1.07422 0.785156,1.07422 0.558107,0 0.640626,0.0208 0.640626,0.59961 0,0.57878 -0.06217,0.62109 -0.599611,0.62109 -0.537438,0 -0.826171,0.20606 -0.826171,0.82618 0,0.62011 0.413738,0.95117 0.951171,0.95117 0.537438,0 0.537109,0.0607 0.537109,0.41211 0,0.5788 -1.158202,-1e-5 -1.158202,1.48828 0,0 0.157115,0.61926 1.44336,3.33789 1.778003,3.75806 0.761601,3.1875 6.929689,3.1875 z"
       transform="scale(0.26458334)" /><g
       id="g18"
       style="display:inline"
       transform="scale(0.26458334)"><path
         id="path3"
         style="display:inline;fill:#83868c;stroke:none;stroke-width:0.999999;stroke-linecap:round;stroke-linejoin:round"
         d="m 147.28809,22.165187 c 0,-1.783191 -0.11706,-4.736328 -4.50196,-4.736328 H 95.897461 50.002927 c -1.98782,0 -5.291014,-0.0876 -5.291014,5.378906 V 150.51675 c 0,5.46651 3.303194,5.37891 5.291014,5.37891 h 45.894534 46.888669 c 4.38489,0 4.50196,-2.95314 4.50196,-4.73633 z" /><path
         id="path8"
         style="display:inline;fill:#56595b;stroke:none;stroke-width:0.951137;stroke-linecap:round;stroke-linejoin:round"
         d="m 147.28808,21.713641 c 0.001,-1.613191 -0.11705,-4.28479 -4.50196,-4.28479 H 95.897458 50.002924 c -1.98782,0 -5.294013,-0.07925 -5.291014,4.866107 l 0.07303,120.413302 102.41538,-0.0588 z" /><path
         style="display:inline;fill:#000000;stroke:none;stroke-width:0.999999;stroke-linecap:round;stroke-linejoin:round"
         d="M 142.77241,138.65658 H 49.227593 V 21.199815 h 93.544817 z"
         id="path4" /></g><g
       id="g17"
       transform="matrix(0.26458334,0,0,0.26458334,0.51593354,0)"
       style="display:inline"><circle
         style="display:inline;fill:#56595b;stroke:none;stroke-width:0.999999;stroke-linecap:round;stroke-linejoin:round"
         id="path6"
         cx="94.050011"
         cy="149.11772"
         r="2.5838251" /><path
         id="circle6"
         style="display:inline;stroke-width:0.343804;stroke-linecap:round;stroke-linejoin:round"
         d="m 94.938345,149.11772 a 0.88833183,0.88833183 0 0 1 -0.888329,0.88833 0.88833183,0.88833183 0 0 1 -0.888332,-0.88833 0.88833183,0.88833183 0 0 1 0.888332,-0.88833 0.88833183,0.88833183 0 0 1 0.888329,0.88833 z" /><path
         style="display:inline;fill:#000000;stroke:#000000;stroke-width:0.999999;stroke-linecap:round;stroke-linejoin:round;stroke-opacity:1"
         d="m 73.729674,149.26188 h 3.215592 m 6.32643,0 h 3.215592 m 15.372722,0 h 3.21559 m 6.07916,0 h 3.21559"
         id="path7" /><path
         id="path5"
         style="display:inline;fill:#ba6561;stroke:none;stroke-width:0.999999;stroke-linecap:round;stroke-linejoin:round"
         d="m 74.103191,9.7148438 a 2.2117543,2.2117543 0 0 0 -2.210937,2.2128902 2.2117543,2.2117543 0 0 0 2.210937,2.210938 2.2117543,2.2117543 0 0 0 2.21289,-2.210938 2.2117543,2.2117543 0 0 0 -2.21289,-2.2128902 z m 8.119139,0 c -1.220878,4.513e-4 -2.210487,0.9900572 -2.210937,2.2109372 -6.27e-4,1.221643 0.989295,2.212439 2.210937,2.212891 h 23.77149 c 1.22164,-4.52e-4 2.21156,-0.991248 2.21093,-2.212891 -4.5e-4,-1.22088 -0.99006,-2.2104859 -2.21093,-2.2109372 z" /><path
         id="path5-3"
         style="display:inline;fill:#000000;stroke:none;stroke-width:0.325935;stroke-linecap:round;stroke-linejoin:round"
         d="m 74.103191,11.205078 a 0.72088954,0.72088954 0 0 0 -0.720703,0.722656 0.72088954,0.72088954 0 0 0 0.720703,0.720703 0.72088954,0.72088954 0 0 0 0.722657,-0.720703 0.72088954,0.72088954 0 0 0 -0.722657,-0.722656 z m 14.404297,0 c -0.398756,1.02e-4 -0.721682,0.323902 -0.720703,0.722656 1.02e-4,0.397991 0.322696,0.720601 0.720703,0.720703 h 10.966794 c 0.397992,-1.02e-4 0.720598,-0.322711 0.720698,-0.720703 9.8e-4,-0.398753 -0.321935,-0.722554 -0.720698,-0.722656 z" /></g><g
       id="g16"
       transform="matrix(0.26458334,0,0,0.26458334,0.14266591,0)"
       style="display:inline"><path
         id="path2"
         style="display:inline;fill:#b1b5bd;stroke:none;stroke-width:0.264583;stroke-linecap:round;stroke-linejoin:round"
         d="m 39.498585,48.44282 c 1.631972,0 1.362532,0.150961 1.832962,-0.84336 0.340314,-0.719304 0.381889,-0.88315 0.381889,-0.88315 0,-0.393775 -0.306441,-0.240634 -0.306441,-0.393774 0,-0.09297 -8.7e-5,-0.109037 0.14211,-0.109037 0.142196,0 0.251664,-0.08759 0.251664,-0.251665 0,-0.164074 -0.07639,-0.218591 -0.218591,-0.218591 -0.142193,0 -0.158647,-0.0112 -0.158647,-0.164331 0,-0.153104 0.02183,-0.158647 0.169499,-0.158647 0.147665,0 0.207739,-0.05999 0.207739,-0.28422 0,-0.224231 -0.09302,-0.295589 -0.224275,-0.295589 -0.131255,0 -0.147278,-0.02739 -0.147278,-0.158647 0,-0.131253 0.01593,-0.15813 0.15813,-0.15813 0.142197,0 0.202571,-0.05491 0.202571,-0.268201 0,-0.213299 -0.120492,-0.245979 -0.240812,-0.245979 -0.120318,0 -0.136426,-0.01662 -0.136426,-0.136943 0,-0.120288 0.01168,-0.116789 0.150896,-0.116789 0.139221,0 0.239778,-0.08522 0.239778,-0.30179 0,-0.216561 -0.07734,-0.278536 -0.232027,-0.278536 -0.154688,0 -0.143144,0.01565 -0.143144,-0.143144 0,-0.15883 0.01146,-0.152962 0.152446,-0.152962 0.140991,0 0.168465,-0.029 0.168465,-0.291972 0,-0.262972 -0.08493,-0.293583 -0.402043,-0.556555 -0.317113,-0.263007 -0.387032,-0.270784 -0.611332,-0.270784 H 40.519194 9.9954747 9.7789507 c -0.2243,0 -0.294219,0.0078 -0.611332,0.270784 -0.317114,0.262972 -0.402043,0.293583 -0.402043,0.556555 0,0.262972 0.02747,0.291972 0.168465,0.291972 0.140988,0 0.152963,-0.0059 0.152963,0.152962 0,0.158797 0.01103,0.143144 -0.143661,0.143144 -0.154689,0 -0.232027,0.06197 -0.232027,0.278536 0,0.216566 0.100558,0.30179 0.239779,0.30179 0.13922,0 0.150895,-0.0035 0.150895,0.116789 0,0.12032 -0.01611,0.136943 -0.136426,0.136943 -0.12032,0 -0.240812,0.03268 -0.240812,0.245979 0,0.213295 0.06038,0.268201 0.202572,0.268201 0.142196,0 0.158646,0.02688 0.158646,0.15813 0,0.131259 -0.01654,0.158647 -0.147794,0.158647 -0.131259,0 -0.224276,0.07136 -0.224276,0.295589 0,0.224233 0.06007,0.28422 0.207739,0.28422 0.147666,0 0.169499,0.0055 0.169499,0.158647 0,0.153135 -0.01645,0.164331 -0.158647,0.164331 -0.142197,0 -0.218591,0.05452 -0.218591,0.218591 0,0.164073 0.109468,0.251665 0.251664,0.251665 0.142197,0 0.14211,0.01606 0.14211,0.109037 0,0.15314 -0.306441,-10e-7 -0.306441,0.393774 0,0 0.04157,0.163846 0.381889,0.88315 0.47043,0.994321 0.201507,0.84336 1.8334803,0.84336 z"
         transform="scale(3.7795275)" /><path
         id="path9"
         style="display:inline;fill:#56595b;stroke:none;stroke-width:0.999999;stroke-linecap:round;stroke-linejoin:round"
         d="m 47.839699,157.83398 v 25.25781 h 1.460938 v -25.25781 z m 20.287109,0 v 25.25781 h 1.460938 v -25.25781 z m 4.150393,0 v 25.25781 h 1.460935 v -25.25781 z m 20.406248,0 v 25.25781 h 1.460938 v -25.25781 z m 4.150389,0 v 25.25781 h 1.460939 v -25.25781 z m 20.406252,0 v 25.25781 h 1.46093 v -25.25781 z m 4.15039,0 v 25.25781 h 1.46093 v -25.25781 z m 20.22851,0 v 25.25781 h 1.46289 v -25.25781 z" /><path
         id="path10"
         style="display:inline;fill:#4a4a4a;stroke:none;stroke-width:0.818858;stroke-linecap:round;stroke-linejoin:round"
         d="m 47.840303,159.62377 v 16.93611 l 0.758137,-0.76005 v -15.41601 z m 20.287109,0 v 16.93611 l 0.758137,-0.76005 v -15.41601 z m 4.150393,0 v 16.93611 l 0.758134,-0.76005 v -15.41601 z m 20.406248,0 v 16.93611 l 0.758137,-0.76005 v -15.41601 z m 4.150389,0 v 16.93611 l 0.758138,-0.76005 v -15.41601 z m 20.406248,0 v 16.93611 l 0.75814,-0.76005 v -15.41601 z m 4.15039,0 v 16.93611 l 0.75814,-0.76005 v -15.41601 z m 20.22851,0 v 16.93611 l 0.7601,-0.76005 v -15.41601 z" /><path
         id="rect8"
         style="display:inline;fill:#56595b;stroke:none;stroke-linecap:round;stroke-linejoin:round;stroke-opacity:1"
         d="m 33.263672,176.56445 v 0.002 c 0,0 0.157115,0.61926 1.44336,3.33789 1.778003,3.75806 0.761599,3.1875 6.929687,3.1875 H 149.28516 c 6.16808,0 5.14973,0.57056 6.92773,-3.1875 1.28623,-2.71863 1.44336,-3.33789 1.44336,-3.33789 v -0.002 z" /><path
         id="rect9"
         style="display:inline;fill:#56595b;stroke:none;stroke-linecap:round;stroke-linejoin:round;stroke-opacity:1"
         d="m 36.958836,157.83398 c -0.847748,0 -1.11201,0.0295 -2.310547,1.02344 -0.397372,0.32953 -0.669802,0.55149 -0.894531,0.75195 H 157.16782 c -0.22473,-0.20046 -0.49912,-0.42242 -0.89649,-0.75195 -1.19853,-0.99404 -1.46279,-1.02344 -2.31054,-1.02344 H 153.14243 37.777195 Z" /><path
         id="rect10"
         style="fill:#56595b;stroke-width:3.77953;stroke-linecap:round;stroke-linejoin:round"
         d="m 110.82309,164.08203 c -0.46328,-0.002 -0.96976,0.0484 -1.46289,0.19533 -0.76462,0.22775 -1.2714,0.61076 -1.58594,0.95117 -0.31453,-0.34042 -0.81549,-0.72342 -1.58008,-0.95117 -0.49288,-0.14684 -0.99684,-0.19593 -1.45508,-0.19336 -1.00777,0.006 -1.83789,0.25194 -1.83789,0.25194 a 0.50004933,0.50004933 0 0 0 -0.36132,0.48047 v 4.55274 a 0.50004933,0.50004933 0 0 0 0.67187,0.47265 c 0,0 1.3177,-0.45726 2.61328,0 0.65905,0.23263 1.0255,0.56356 1.23242,0.82031 0.20693,0.25674 0.23634,0.39844 0.23634,0.39844 a 0.50004933,0.50004933 0 0 0 0.95898,0 c 0,0 0.037,-0.1417 0.24416,-0.39844 0.20693,-0.25674 0.56556,-0.5877 1.22461,-0.82031 1.29545,-0.45721 2.62109,0 2.62109,0 a 0.50004933,0.50004933 0 0 0 0.67188,-0.47266 v -4.55273 a 0.50004933,0.50004933 0 0 0 -0.36132,-0.48047 c 0,0 -0.81088,-0.25036 -1.83008,-0.25391 z m 16.17968,0.0178 a 0.50004933,0.50004933 0 0 0 -0.50195,0.50195 v 6.15625 a 0.50004933,0.50004933 0 0 0 0.50195,0.50195 h 9.9668 a 0.50004933,0.50004933 0 0 0 0.50195,-0.50195 v -6.15625 a 0.50004933,0.50004933 0 0 0 -0.50195,-0.50195 z m -73.050783,0.0295 a 0.50004933,0.50004933 0 0 0 -0.126954,0.0253 0.50004933,0.50004933 0 0 0 -0.0098,0 0.5,0.5 0 0 0 -0.0038,0.002 0.50004933,0.50004933 0 0 0 -0.351572,0.42578 0.50004933,0.50004933 0 0 0 -0.0098,0.0488 v 6.12696 a 0.50004933,0.50004933 0 0 0 0.501955,0.50195 h 9.826171 a 0.50004933,0.50004933 0 0 0 0.494139,-0.50195 v -6.12696 a 0.50004933,0.50004933 0 0 0 -0.494139,-0.50195 z m 29.207032,0.74414 a 0.52618756,0.52618756 0 0 0 -0.525392,0.52539 0.52618756,0.52618756 0 0 0 0.525392,0.52539 0.52618756,0.52618756 0 0 0 0.527343,-0.52539 0.52618756,0.52618756 0 0 0 -0.527343,-0.52539 z m 21.587901,0.21483 c 0.38727,-0.002 0.79432,0.0395 1.16015,0.14842 0.59834,0.17824 0.94489,0.45409 1.15039,0.67969 0.2055,0.2256 0.25195,0.36132 0.25195,0.36132 a 0.50004933,0.50004933 0 0 0 0.93749,0 c 0,0 0.0367,-0.13572 0.24219,-0.36132 0.2055,-0.2256 0.55402,-0.50146 1.15235,-0.67969 1.01491,-0.30233 2.03999,-0.0253 2.36914,0.0508 v 3.61719 c -0.4702,-0.1344 -1.27694,-0.47371 -2.61914,0 -0.8056,0.28434 -1.30168,0.71524 -1.61719,1.09375 -0.31582,-0.37768 -0.81403,-0.81028 -1.61718,-1.09375 -1.34134,-0.4734 -2.14284,-0.13451 -2.61329,0 v -3.65429 c 0.23052,-0.0555 0.54754,-0.15837 1.20313,-0.16211 z m 22.75781,0.0155 h 3.94726 c -0.94243,0.25123 -1.64257,1.11516 -1.64257,2.13282 0,1.21204 0.99498,2.20703 2.20703,2.20703 1.21204,0 2.20703,-0.99499 2.20703,-2.20703 0,-1.01766 -0.7021,-1.88162 -1.64454,-2.13282 h 3.89649 v 5.16016 h -8.9707 z m -72.500008,0.0295 h 7.775387 l -3.962887,4.74024 z m 77.011728,0.90039 c 0.6716,0 1.20312,0.53152 1.20312,1.20313 0,0.6716 -0.53152,1.20312 -1.20312,1.20312 -0.67161,0 -1.20313,-0.53152 -1.20313,-1.20312 1e-5,-0.67161 0.53152,-1.20312 1.20313,-1.20313 z m -77.562511,0.0136 3.394533,4.20898 h -3.394533 z m 8.822267,0.0527 v 4.15625 h -3.476564 z m 19.857422,0.19922 a 0.5,0.5 0 0 0 -0.501955,0.50196 v 3.77343 a 0.5,0.5 0 0 0 0.501955,0.50196 0.5,0.5 0 0 0 0.501952,-0.50196 v -3.77343 a 0.5,0.5 0 0 0 -0.501952,-0.50196 z" /></g></g><g
     id="layer3"
     transform="translate(0,-1.1137637)"><path
       style="fill:none;stroke:#f9de81;stroke-width:0.264583;stroke-linecap:round;stroke-linejoin:round"
       d="m 16.608949,14.181888 1.058333,-0.892969 v 7.623307"
       id="path11" /><path
       style="fill:none;stroke:#f9de81;stroke-width:0.260836;stroke-linecap:round;stroke-linejoin:round"
       d="m 28.262539,13.279574 c 1.054556,-0.0019 1.920086,1.485166 1.920086,3.732985 0,2.247819 -0.902109,3.893545 -1.920086,3.893545 -1.017977,0 -1.953191,-1.493194 -1.953191,-3.965796 0,-2.472601 0.898635,-3.658816 1.953191,-3.660734 z"
       id="path12" /><path
       style="fill:none;stroke:#f9de81;stroke-width:0.257867;stroke-linecap:round;stroke-linejoin:round"
       d="m 33.879332,20.911116 v -7.626063 l -2.632451,5.389085 h 3.896948"
       id="path13" /><path
       id="path14"
       style="fill:none;stroke:#f9de81;stroke-width:0.264583;stroke-linecap:round;stroke-linejoin:round"
       d="m 17.690074,23.319156 c -0.919172,5.1e-5 -1.664216,0.745326 -1.663981,1.664498 5e-5,0.918971 0.74501,1.663931 1.663981,1.663982 0.919173,2.35e-4 1.664448,-0.744809 1.664498,-1.663982 2.35e-4,-0.919374 -0.745124,-1.664733 -1.664498,-1.664498 z m 5.17e-4,3.340882 c -1.150339,-2.24e-4 -2.083,1.049742 -2.083077,2.345076 -1.77e-4,1.295536 0.932558,2.345818 2.083077,2.345594 1.150317,-9.7e-5 2.082737,-1.050285 2.08256,-2.345594 -7.7e-5,-1.295106 -0.932423,-2.344979 -2.08256,-2.345076 z" /><path
       id="path15"
       style="fill:#f9de81;stroke-width:0.370416;stroke-linecap:round;stroke-linejoin:round"
       d="m 25.269722,20.717562 a 0.31832683,0.31832683 0 0 1 -0.318327,0.318327 0.31832683,0.31832683 0 0 1 -0.318327,-0.318327 0.31832683,0.31832683 0 0 1 0.318327,-0.318327 0.31832683,0.31832683 0 0 1 0.318327,0.318327 z" /><path
       id="path16"
       style="fill:none;stroke:#f9de81;stroke-width:0.26302;stroke-linecap:round;stroke-linejoin:round"
       d="m 24.928031,23.305318 h -2.497924 l -0.697888,4.28121 c 0.396598,-0.294214 0.876801,-0.442062 1.365276,-0.422939 0.4884,0.01887 0.955265,0.203498 1.321853,0.52274 0.755424,0.658527 0.938331,1.750561 0.43786,2.614211 -0.500343,0.863736 -1.546397,1.261443 -2.504127,0.952061 -0.95762,-0.309418 -1.563332,-1.240633 -1.450057,-2.229302" /><path
       id="path18"
       style="fill:none;stroke:#f9de81;stroke-width:0.260462;stroke-linecap:round;stroke-linejoin:round;stroke-dasharray:none"
       d="m 28.251659,23.307724 a 1.9316205,1.9316205 0 0 0 -1.931593,1.931592 1.9316205,1.9316205 0 0 0 1.931593,1.931592 1.9316205,1.9316205 0 0 0 1.931592,-1.931592 1.9316205,1.9316205 0 0 0 -1.931592,-1.931592 z m 1.76982,2.71654 -2.024686,5.334898 z" /><path
       id="circle19"
       style="fill:none;stroke:#f9de81;stroke-width:0.262974;stroke-linecap:round;stroke-linejoin:round;stroke-dasharray:none"
       d="m 33.454378,23.219927 -2.044336,5.386349 z M 33.19684,27.44835 a 1.9502477,1.9502477 0 0 0 -1.950505,1.950505 1.9502477,1.9502477 0 0 0 1.950505,1.950006 1.9502477,1.9502477 0 0 0 1.950005,-1.950006 1.9502477,1.9502477 0 0 0 -1.950005,-1.950505 z" /></g></svg>
